grf_walk
version=1
nRows=32
nColumns=19
inDegrees=no
endheader
time	ground_force_r_vx	ground_force_r_vy	ground_force_r_vz	ground_force_r_px	ground_force_r_py	ground_force_r_pz	ground_torque_r_x	ground_torque_r_y	ground_torque_r_z	ground_force_l_vx	ground_force_l_vy	ground_force_l_vz	ground_force_l_px	ground_force_l_py	ground_force_l_pz	ground_torque_l_x	ground_torque_l_y	ground_torque_l_z
5.99980000	-4.75082400	443.66903600	51.01094200	0.82424000	0.00108600	-0.63637500	-8.14202955	1.37518572	3.44564738	0.00000000	0.00000000	0.00000000	0.00000000	0.00000000	0.00000000	0.00000000	0.00000000	0.00000000
6.00379987	-7.34138500	437.55615600	46.59682100	0.81187500	0.00108100	-0.63478300	-7.33341583	1.22416033	8.80787949	0.00000000	0.00000000	0.00000000	0.00000000	0.00000000	0.00000000	0.00000000	0.00000000	0.00000000
6.00779973	-2.30684400	439.07230700	39.57457800	0.81513700	0.00107900	-0.63741000	-8.51046950	-2.01243384	7.41236698	0.00000000	0.00000000	0.00000000	0.00000000	0.00000000	0.00000000	0.00000000	0.00000000	0.00000000
6.01179960	1.35183200	445.16995500	35.13861400	0.82302700	0.00107900	-0.63978300	-9.68415468	-3.57984632	4.00628916	0.00000000	0.00000000	0.00000000	0.00000000	0.00000000	0.00000000	0.00000000	0.00000000	0.00000000
6.01579947	-4.75099600	443.94636800	35.44597900	0.81255600	0.00107600	-0.63804900	-8.89034888	0.80150760	8.63540707	0.00000000	0.00000000	0.00000000	0.00000000	0.00000000	0.00000000	0.00000000	0.00000000	0.00000000
6.01979933	-5.05805900	447.30858300	38.49172700	0.80409300	0.00106900	-0.63938400	-9.55606868	3.31568171	12.48124017	0.00000000	0.00000000	0.00000000	0.00000000	0.00000000	0.00000000	0.00000000	0.00000000	0.00000000
6.02379920	0.28131400	449.45218100	40.92930300	0.80489800	0.00106700	-0.64089000	-10.27831036	3.01569054	12.17967179	0.00000000	0.00000000	0.00000000	0.00000000	0.00000000	0.00000000	0.00000000	0.00000000	0.00000000
6.02779907	3.48308500	454.03352200	41.98922400	0.80744200	0.00107100	-0.63930700	-9.66315335	0.85301480	11.15280073	0.00000000	0.00000000	0.00000000	0.00000000	0.00000000	0.00000000	0.00000000	0.00000000	0.00000000
6.03179893	4.09360800	453.72678000	40.92165600	0.79948800	0.00107000	-0.63740200	-8.78971499	-4.01760152	14.76235780	0.00000000	0.00000000	0.00000000	0.00000000	0.00000000	0.00000000	0.00000000	0.00000000	0.00000000
6.03579880	0.58374400	454.33734000	42.14126900	0.79281200	0.00106800	-0.63610300	-8.21017113	-6.26489700	17.81887944	0.00000000	0.00000000	0.00000000	0.00000000	0.00000000	0.00000000	0.00000000	0.00000000	0.00000000
6.03979867	-1.55523200	459.22003400	42.74288700	0.79746700	0.00106800	-0.63779800	-9.07762934	-4.65906901	15.87010246	0.00000000	0.00000000	0.00000000	0.00000000	0.00000000	0.00000000	0.00000000	0.00000000	0.00000000
6.04379853	-0.64313800	465.31968700	40.29056500	0.79790000	0.00106700	-0.63848900	-9.52178062	-1.17515383	15.87327256	0.00000000	0.00000000	0.00000000	0.00000000	0.00000000	0.00000000	0.00000000	0.00000000	0.00000000
6.04779840	5.15365600	468.06652200	38.60718100	0.78909200	0.00106100	-0.63893800	-9.78901135	0.41547057	20.08621732	0.00000000	0.00000000	0.00000000	0.00000000	0.00000000	0.00000000	0.00000000	0.00000000	0.00000000
6.05179827	8.66180300	470.50239000	33.87259200	0.78982400	0.00105800	-0.64066000	-10.65123479	2.29197189	19.84332682	0.00000000	0.00000000	0.00000000	0.00000000	0.00000000	0.00000000	0.00000000	0.00000000	0.00000000
6.05579813	8.35302300	476.91362800	35.38700400	0.78921900	0.00106100	-0.63901300	-10.01040967	1.30337296	20.40396962	0.00000000	0.00000000	0.00000000	0.00000000	0.00000000	0.00000000	0.00000000	0.00000000	0.00000000
6.05979800	1.94313100	479.04952600	37.21424100	0.78749200	0.00105800	-0.64017300	-10.61054829	0.72541065	21.32362433	0.00000000	0.00000000	0.00000000	0.00000000	0.00000000	0.00000000	0.00000000	0.00000000	0.00000000
6.06379787	-0.34688800	481.19047100	40.56735000	0.78019800	0.00105900	-0.63751600	-9.37782579	-2.34414912	24.93349927	0.00000000	0.00000000	0.00000000	0.00000000	0.00000000	0.00000000	0.00000000	0.00000000	0.00000000
6.06779773	6.21301700	483.63938400	42.69920300	0.78095700	0.00106200	-0.63591600	-8.65019223	-5.04685825	24.69781491	0.00000000	0.00000000	0.00000000	0.00000000	0.00000000	0.00000000	0.00000000	0.00000000	0.00000000
6.07179760	11.39740000	490.05070900	42.53514500	0.77550100	0.00105500	-0.63811200	-9.84082493	-5.07806643	27.69834289	0.00000000	0.00000000	0.00000000	0.00000000	0.00000000	0.00000000	0.00000000	0.00000000	0.00000000
6.07579747	13.98916300	494.02299500	44.51168500	0.77137100	0.00105400	-0.63763000	-9.68285249	-4.40350572	29.96129660	0.00000000	0.00000000	0.00000000	0.00000000	0.00000000	0.00000000	0.00000000	0.00000000	0.00000000
6.07979733	12.61535700	494.93501900	42.98417200	0.76913600	0.00105000	-0.63867800	-10.22103780	-1.43973267	31.11749560	0.00000000	0.00000000	0.00000000	0.00000000	0.00000000	0.00000000	0.00000000	0.00000000	0.00000000
6.08379720	5.44304000	496.15277800	43.59234600	0.77125600	0.00105600	-0.63629500	-9.06543163	0.86095737	30.13846842	0.00000000	0.00000000	0.00000000	0.00000000	0.00000000	0.00000000	0.00000000	0.00000000	0.00000000
6.08779707	6.35547800	501.63798500	38.85230100	0.76533400	0.00104800	-0.63886000	-10.45130816	-0.94022816	33.44570753	0.00000000	0.00000000	0.00000000	0.00000000	0.00000000	0.00000000	0.00000000	0.00000000	0.00000000
6.09179693	10.93311400	501.63455500	35.49536900	0.76728100	0.00105000	-0.63837300	-10.20620748	-2.43205020	32.47183016	0.00000000	0.00000000	0.00000000	0.00000000	0.00000000	0.00000000	0.00000000	0.00000000	0.00000000
6.09579680	14.89627900	508.96454100	37.46590200	0.76339300	0.00104700	-0.63883600	-10.59071119	-2.73809775	34.92505467	0.00000000	0.00000000	0.00000000	0.00000000	0.00000000	0.00000000	0.00000000	0.00000000	0.00000000
6.09979667	17.02989700	514.46708600	42.03370200	0.75628000	0.00104200	-0.63941100	-11.00139916	-1.70864327	38.95895894	0.00000000	0.00000000	0.00000000	0.00000000	0.00000000	0.00000000	0.00000000	0.00000000	0.00000000
6.10379653	16.41885900	515.69945500	48.74585200	0.76071700	0.00104700	-0.63782800	-10.21204652	-0.37158740	36.76127832	0.00000000	0.00000000	0.00000000	0.00000000	0.00000000	0.00000000	0.00000000	0.00000000	0.00000000
6.10779640	14.28112200	517.53121500	49.81069200	0.75270700	0.00104200	-0.63794300	-10.30630459	-3.03631990	41.04123663	0.00000000	0.00000000	0.00000000	0.00000000	0.00000000	0.00000000	0.00000000	0.00000000	0.00000000
6.11179627	15.50213000	517.83243700	47.21615500	0.75074900	0.00104600	-0.63560500	-9.09981443	-6.84104959	42.08599281	0.00000000	0.00000000	0.00000000	0.00000000	0.00000000	0.00000000	0.00000000	0.00000000	0.00000000
6.11579613	20.84287700	517.51989200	41.41788800	0.75176300	0.00104600	-0.63582000	-9.20483944	-8.34735444	41.53920712	0.00000000	0.00000000	0.00000000	0.00000000	0.00000000	0.00000000	0.00000000	0.00000000	0.00000000
6.11979600	21.44996700	523.31583500	39.88163900	0.74995300	0.00104100	-0.63807100	-10.48707463	-6.14899154	42.94764645	0.00000000	0.00000000	0.00000000	0.00000000	0.00000000	0.00000000	0.00000000	0.00000000	0.00000000
6.12379587	17.63303900	527.28451600	41.85818500	0.74257100	0.00103400	-0.63970400	-11.43068558	-0.55146928	47.15497863	0.00000000	0.00000000	0.00000000	0.00000000	0.00000000	0.00000000	0.00000000	0.00000000	0.00000000
